<svg xmlns="http://www.w3.org/2000/svg" xmlns:xlink="http://www.w3.org/1999/xlink" width="500" zoomAndPan="magnify" viewBox="0 0 375 374.999991" height="500" preserveAspectRatio="xMidYMid meet" version="1.0"><defs><clipPath id="29fd459741"><path d="M 61.425781 2 L 330 2 L 330 375 L 61.425781 375 Z M 61.425781 2 " clip-rule="nonzero"/></clipPath></defs><rect x="-37.5" width="450" fill="#ffffff" y="-37.499999" height="449.999989" fill-opacity="1"/><rect x="-37.5" width="450" fill="#ffffff" y="-37.499999" height="449.999989" fill-opacity="1"/><g clip-path="url(#29fd459741)"><path fill="#000000" d="M 70.273438 185.589844 L 81.050781 185.589844 L 81.050781 154.726562 C 81.050781 149.398438 87.183594 150.355469 90.90625 150.355469 L 90.90625 123.855469 C 83.425781 123.855469 70.273438 121.675781 70.273438 131.570312 Z M 280.914062 141.8125 C 281.695312 141.582031 282.457031 141.253906 283.195312 140.824219 L 283.195312 140.816406 C 288.183594 137.929688 290.046875 131.707031 287.519531 126.585938 C 286.179688 123.867188 287.988281 120.664062 290.9375 120.320312 L 295.125 118.941406 L 295.117188 118.9375 C 300.28125 115.957031 302.082031 109.40625 299.195312 104.203125 C 297.441406 101.046875 300.078125 97.273438 303.609375 97.777344 L 303.617188 97.769531 C 306.960938 98.25 310.421875 97.601562 313.390625 95.890625 L 313.382812 95.882812 C 326.074219 88.558594 322.039062 69.195312 307.527344 67.519531 C 304.449219 67.167969 302.597656 63.816406 304.339844 60.835938 C 310.8125 49.777344 299.808594 34.578125 286.109375 39.117188 C 283.046875 40.128906 280.046875 37.558594 280.425781 34.453125 L 280.410156 34.453125 C 283.09375 12.910156 255.035156 1.980469 242.429688 19.558594 C 238.078125 25.613281 239.617188 32.289062 233.769531 31.125 C 232.441406 30.855469 231.378906 30.015625 230.789062 28.914062 L 230.78125 28.914062 L 230.605469 28.59375 L 230.597656 28.59375 C 221.195312 11.882812 196.6875 15.285156 191.859375 33.324219 C 190.460938 38.539062 191.050781 44.273438 193.949219 49.300781 L 193.957031 49.300781 C 194.945312 51.023438 197.464844 54.367188 193.847656 56.894531 C 193.007812 57.476562 192.039062 57.734375 191.09375 57.675781 L 191.09375 57.679688 C 190.066406 57.625 189.011719 57.710938 187.953125 57.957031 C 182.425781 59.269531 178.828125 64.640625 179.703125 70.265625 C 180.292969 74.015625 176.097656 76.65625 172.972656 74.542969 L 172.964844 74.546875 C 167.800781 71.066406 161.09375 70.765625 155.621094 73.921875 L 155.621094 73.929688 C 143.058594 81.1875 145.511719 100.136719 159.5625 103.90625 C 173.917969 107.75 175.996094 93.632812 181.859375 99.148438 C 183.875 101.046875 184.871094 102.6875 188.726562 103.394531 C 191.171875 103.839844 193.789062 103.453125 196.117188 102.113281 L 196.113281 102.105469 C 198.253906 100.867188 202.046875 99.210938 203.65625 103.511719 L 203.664062 103.511719 C 207.460938 113.640625 217.730469 107.789062 217.269531 115.191406 C 217.242188 115.621094 211.648438 127.535156 222.550781 131.832031 C 228.167969 134.039062 233.46875 129.382812 235.179688 135.039062 C 235.53125 136.183594 235.378906 137.363281 234.859375 138.347656 C 224.910156 156.933594 245.648438 177.121094 263.945312 166.558594 C 270.957031 162.507812 274.941406 154.863281 274.410156 146.894531 C 274.117188 142.519531 278.363281 142.265625 280.914062 141.8125 Z M 318.933594 62.644531 C 337.320312 74.722656 330.894531 103.410156 309.042969 106.425781 C 310.296875 114.324219 306.617188 122.367188 299.488281 126.484375 L 299.480469 126.476562 L 297.011719 127.699219 C 298.546875 135.78125 294.871094 144.144531 287.5625 148.363281 L 287.558594 148.355469 L 283.113281 150.246094 C 281.175781 179.410156 242.332031 188.6875 227.628906 163.214844 C 223.738281 156.464844 222.6875 148.605469 224.503906 141.21875 C 213.164062 140.023438 205.230469 129.398438 207.285156 118.171875 C 203.488281 116.816406 200.148438 114.308594 197.792969 110.941406 C 191.390625 113.449219 184.152344 112.378906 178.738281 108.234375 C 159.695312 122.367188 133.457031 104.445312 139.570312 81.609375 C 141.230469 75.414062 145.257812 69.84375 151.25 66.382812 L 151.257812 66.386719 C 157.269531 62.78125 164.835938 62.132812 171.347656 64.179688 C 172.871094 57.46875 177.886719 51.96875 184.550781 49.839844 C 172.527344 19.945312 210.621094 -5.089844 233.300781 17.78125 C 247.175781 -8.179688 286.996094 -0.121094 289.226562 29.6875 C 305.765625 28.515625 318.476562 44.171875 313.960938 60.144531 C 315.699219 60.777344 317.367188 61.617188 318.933594 62.644531 Z M 70.273438 345.527344 L 213.234375 345.527344 L 213.234375 215.996094 C 213.234375 204.089844 203.488281 194.332031 191.582031 194.332031 C 151.144531 194.332031 110.710938 194.332031 70.273438 194.332031 Z M 213.234375 354.269531 L 70.273438 354.269531 L 70.273438 366.367188 L 213.234375 366.367188 Z M 143.777344 233.042969 C 146.65625 228.074219 154.203125 232.4375 151.324219 237.414062 L 128.753906 276.519531 L 162.316406 276.519531 C 165.507812 276.519531 168.046875 280.046875 165.878906 283.421875 L 140.355469 327.640625 C 137.492188 332.609375 129.953125 328.257812 132.808594 323.304688 L 154.761719 285.261719 L 121.199219 285.261719 L 121.199219 285.25 C 117.886719 285.257812 115.730469 281.640625 117.425781 278.707031 Z M 185.636719 206.421875 C 193.855469 206.421875 200.605469 213.167969 200.605469 221.386719 L 200.605469 247.617188 C 200.605469 260.773438 184.53125 267.667969 175.0625 258.1875 C 172.351562 255.476562 170.671875 251.734375 170.671875 247.617188 L 170.671875 221.386719 C 170.671875 217.488281 172.433594 213.195312 175.070312 210.820312 L 175.0625 210.8125 C 177.769531 208.101562 181.515625 206.421875 185.636719 206.421875 Z M 185.636719 215.164062 L 181.238281 216.992188 L 181.230469 216.984375 C 180.109375 218.113281 179.410156 219.671875 179.410156 221.386719 L 179.410156 247.617188 C 179.410156 255.792969 191.863281 255.820312 191.863281 247.617188 L 191.863281 221.386719 C 191.863281 217.953125 189.066406 215.164062 185.636719 215.164062 Z M 99.648438 150.355469 L 108.007812 150.355469 L 108.007812 123.855469 L 99.648438 123.855469 Z M 116.75 150.355469 C 120.472656 150.355469 126.605469 149.398438 126.605469 154.726562 L 126.605469 185.589844 L 137.382812 185.589844 L 137.382812 131.570312 C 137.382812 129.441406 136.515625 127.519531 135.125 126.121094 L 135.117188 126.128906 C 131.71875 122.71875 123.488281 123.855469 116.75 123.855469 Z M 89.792969 185.589844 L 117.863281 185.589844 L 117.863281 159.097656 L 89.792969 159.097656 Z M 103.828125 75.859375 C 115.234375 75.859375 124.558594 85.1875 124.558594 96.597656 L 124.558594 115.109375 C 130.980469 115.109375 136.035156 114.6875 141.296875 119.941406 L 141.289062 119.957031 C 144.179688 122.558594 146.125 127.285156 146.125 131.570312 L 146.125 185.589844 L 191.582031 185.589844 C 208.3125 185.589844 221.976562 199.265625 221.976562 215.996094 L 221.976562 370.738281 C 221.976562 373.148438 220.023438 375.109375 217.605469 375.109375 L 65.902344 375.109375 C 63.484375 375.109375 61.53125 373.148438 61.53125 370.738281 L 61.53125 131.570312 C 61.53125 122.511719 68.925781 115.109375 77.980469 115.109375 L 83.097656 115.109375 L 83.097656 96.597656 C 83.097656 85.1875 92.414062 75.859375 103.828125 75.859375 Z M 103.828125 84.605469 C 97.238281 84.605469 91.839844 90.011719 91.839844 96.597656 L 91.839844 115.109375 L 115.816406 115.109375 L 115.816406 96.597656 C 115.816406 90.011719 110.414062 84.605469 103.828125 84.605469 Z M 103.828125 84.605469 " fill-opacity="1" fill-rule="nonzero"/></g></svg>